<mxfile host="Electron" modified="2024-05-03T00:47:57.847Z" agent="Mozilla/5.0 (X11; Linux x86_64) AppleWebKit/537.36 (KHTML, like Gecko) draw.io/24.1.0 Chrome/120.0.6099.109 Electron/28.1.0 Safari/537.36" etag="Hkm8wW6xYgx2H39QbQvM" version="24.1.0" type="device">
  <diagram name="Page-1" id="2YBvvXClWsGukQMizWep">
    <mxGraphModel dx="1299" dy="658" grid="1" gridSize="10" guides="1" tooltips="1" connect="1" arrows="1" fold="1" page="1" pageScale="1" pageWidth="850" pageHeight="1100" math="0" shadow="0">
      <root>
        <mxCell id="0" />
        <mxCell id="1" parent="0" />
        <mxCell id="aM9ryv3xv72pqoxQDRHE-1" value="MÃ³dulo bicicletero" style="shape=umlLifeline;perimeter=lifelinePerimeter;whiteSpace=wrap;html=1;container=0;dropTarget=0;collapsible=0;recursiveResize=0;outlineConnect=0;portConstraint=eastwest;newEdgeStyle={&quot;edgeStyle&quot;:&quot;elbowEdgeStyle&quot;,&quot;elbow&quot;:&quot;vertical&quot;,&quot;curved&quot;:0,&quot;rounded&quot;:0};" parent="1" vertex="1">
          <mxGeometry x="155" y="180" width="100" height="680" as="geometry" />
        </mxCell>
        <mxCell id="aM9ryv3xv72pqoxQDRHE-2" value="" style="html=1;points=[];perimeter=orthogonalPerimeter;outlineConnect=0;targetShapes=umlLifeline;portConstraint=eastwest;newEdgeStyle={&quot;edgeStyle&quot;:&quot;elbowEdgeStyle&quot;,&quot;elbow&quot;:&quot;vertical&quot;,&quot;curved&quot;:0,&quot;rounded&quot;:0};" parent="aM9ryv3xv72pqoxQDRHE-1" vertex="1">
          <mxGeometry x="45" y="70" width="10" height="570" as="geometry" />
        </mxCell>
        <mxCell id="aM9ryv3xv72pqoxQDRHE-5" value="HTTP" style="shape=umlLifeline;perimeter=lifelinePerimeter;whiteSpace=wrap;html=1;container=0;dropTarget=0;collapsible=0;recursiveResize=0;outlineConnect=0;portConstraint=eastwest;newEdgeStyle={&quot;edgeStyle&quot;:&quot;elbowEdgeStyle&quot;,&quot;elbow&quot;:&quot;vertical&quot;,&quot;curved&quot;:0,&quot;rounded&quot;:0};" parent="1" vertex="1">
          <mxGeometry x="275" y="180" width="100" height="550" as="geometry" />
        </mxCell>
        <mxCell id="aM9ryv3xv72pqoxQDRHE-6" value="" style="html=1;points=[];perimeter=orthogonalPerimeter;outlineConnect=0;targetShapes=umlLifeline;portConstraint=eastwest;newEdgeStyle={&quot;edgeStyle&quot;:&quot;elbowEdgeStyle&quot;,&quot;elbow&quot;:&quot;vertical&quot;,&quot;curved&quot;:0,&quot;rounded&quot;:0};" parent="aM9ryv3xv72pqoxQDRHE-5" vertex="1">
          <mxGeometry x="45" y="80" width="10" height="460" as="geometry" />
        </mxCell>
        <mxCell id="aM9ryv3xv72pqoxQDRHE-7" value="Wifi" style="html=1;verticalAlign=bottom;endArrow=block;edgeStyle=elbowEdgeStyle;elbow=vertical;curved=0;rounded=0;" parent="1" source="aM9ryv3xv72pqoxQDRHE-2" target="aM9ryv3xv72pqoxQDRHE-6" edge="1">
          <mxGeometry relative="1" as="geometry">
            <mxPoint x="325" y="270" as="sourcePoint" />
            <Array as="points">
              <mxPoint x="310" y="260" />
            </Array>
            <mxPoint as="offset" />
          </mxGeometry>
        </mxCell>
        <mxCell id="hNWl9owBEaFHa4xk389I-3" value="Django ORM" style="shape=umlLifeline;perimeter=lifelinePerimeter;whiteSpace=wrap;html=1;container=0;dropTarget=0;collapsible=0;recursiveResize=0;outlineConnect=0;portConstraint=eastwest;newEdgeStyle={&quot;edgeStyle&quot;:&quot;elbowEdgeStyle&quot;,&quot;elbow&quot;:&quot;vertical&quot;,&quot;curved&quot;:0,&quot;rounded&quot;:0};" vertex="1" parent="1">
          <mxGeometry x="725" y="190" width="100" height="220" as="geometry" />
        </mxCell>
        <mxCell id="hNWl9owBEaFHa4xk389I-4" value="" style="html=1;points=[];perimeter=orthogonalPerimeter;outlineConnect=0;targetShapes=umlLifeline;portConstraint=eastwest;newEdgeStyle={&quot;edgeStyle&quot;:&quot;elbowEdgeStyle&quot;,&quot;elbow&quot;:&quot;vertical&quot;,&quot;curved&quot;:0,&quot;rounded&quot;:0};" vertex="1" parent="hNWl9owBEaFHa4xk389I-3">
          <mxGeometry x="45" y="90" width="10" height="50" as="geometry" />
        </mxCell>
        <mxCell id="hNWl9owBEaFHa4xk389I-21" value="" style="html=1;points=[];perimeter=orthogonalPerimeter;outlineConnect=0;targetShapes=umlLifeline;portConstraint=eastwest;newEdgeStyle={&quot;edgeStyle&quot;:&quot;elbowEdgeStyle&quot;,&quot;elbow&quot;:&quot;vertical&quot;,&quot;curved&quot;:0,&quot;rounded&quot;:0};" vertex="1" parent="hNWl9owBEaFHa4xk389I-3">
          <mxGeometry x="45" y="170" width="10" height="50" as="geometry" />
        </mxCell>
        <mxCell id="hNWl9owBEaFHa4xk389I-5" value="Flujo para registrar bicicleta en bicicletero" style="text;strokeColor=none;fillColor=none;html=1;fontSize=24;fontStyle=1;verticalAlign=middle;align=center;" vertex="1" parent="1">
          <mxGeometry x="165" y="30" width="520" height="40" as="geometry" />
        </mxCell>
        <mxCell id="hNWl9owBEaFHa4xk389I-8" style="edgeStyle=orthogonalEdgeStyle;rounded=0;orthogonalLoop=1;jettySize=auto;html=1;exitX=1;exitY=0.5;exitDx=0;exitDy=0;" edge="1" parent="1" source="hNWl9owBEaFHa4xk389I-7" target="aM9ryv3xv72pqoxQDRHE-2">
          <mxGeometry relative="1" as="geometry">
            <mxPoint x="155" y="250" as="targetPoint" />
            <Array as="points">
              <mxPoint x="205" y="250" />
              <mxPoint x="205" y="250" />
            </Array>
          </mxGeometry>
        </mxCell>
        <mxCell id="hNWl9owBEaFHa4xk389I-9" value="Lectura RFID" style="edgeLabel;html=1;align=center;verticalAlign=middle;resizable=0;points=[];" vertex="1" connectable="0" parent="hNWl9owBEaFHa4xk389I-8">
          <mxGeometry x="-0.244" relative="1" as="geometry">
            <mxPoint as="offset" />
          </mxGeometry>
        </mxCell>
        <mxCell id="hNWl9owBEaFHa4xk389I-7" value="llavero" style="ellipse;whiteSpace=wrap;html=1;" vertex="1" parent="1">
          <mxGeometry x="25" y="230" width="70" height="40" as="geometry" />
        </mxCell>
        <mxCell id="hNWl9owBEaFHa4xk389I-10" style="edgeStyle=elbowEdgeStyle;rounded=0;orthogonalLoop=1;jettySize=auto;html=1;elbow=vertical;curved=0;" edge="1" parent="1" source="aM9ryv3xv72pqoxQDRHE-6" target="hNWl9owBEaFHa4xk389I-2">
          <mxGeometry relative="1" as="geometry">
            <Array as="points">
              <mxPoint x="455" y="270" />
            </Array>
          </mxGeometry>
        </mxCell>
        <mxCell id="hNWl9owBEaFHa4xk389I-11" value="POST&lt;div&gt;json: uuid, ip address.&amp;nbsp;&lt;/div&gt;" style="edgeLabel;html=1;align=center;verticalAlign=middle;resizable=0;points=[];" vertex="1" connectable="0" parent="hNWl9owBEaFHa4xk389I-10">
          <mxGeometry x="0.1868" y="-2" relative="1" as="geometry">
            <mxPoint x="-21" y="-2" as="offset" />
          </mxGeometry>
        </mxCell>
        <mxCell id="hNWl9owBEaFHa4xk389I-12" style="edgeStyle=elbowEdgeStyle;rounded=0;orthogonalLoop=1;jettySize=auto;html=1;elbow=vertical;curved=0;" edge="1" parent="1" source="hNWl9owBEaFHa4xk389I-2" target="hNWl9owBEaFHa4xk389I-4">
          <mxGeometry relative="1" as="geometry">
            <Array as="points">
              <mxPoint x="655" y="280" />
            </Array>
          </mxGeometry>
        </mxCell>
        <mxCell id="hNWl9owBEaFHa4xk389I-13" value="Solicitar&amp;nbsp;&lt;div&gt;Instancia bicicletero&lt;/div&gt;&lt;div&gt;(related to module ip address)&lt;/div&gt;" style="edgeLabel;html=1;align=center;verticalAlign=middle;resizable=0;points=[];" vertex="1" connectable="0" parent="hNWl9owBEaFHa4xk389I-12">
          <mxGeometry x="-0.0008" y="1" relative="1" as="geometry">
            <mxPoint x="-17" y="1" as="offset" />
          </mxGeometry>
        </mxCell>
        <mxCell id="hNWl9owBEaFHa4xk389I-17" style="edgeStyle=elbowEdgeStyle;rounded=0;orthogonalLoop=1;jettySize=auto;html=1;elbow=vertical;curved=0;entryX=1;entryY=1;entryDx=0;entryDy=0;" edge="1" parent="1" source="hNWl9owBEaFHa4xk389I-4" target="hNWl9owBEaFHa4xk389I-16">
          <mxGeometry relative="1" as="geometry">
            <mxPoint x="741.69" y="329.34620689655173" as="sourcePoint" />
            <mxPoint x="595.0000000000002" y="329.31000000000006" as="targetPoint" />
          </mxGeometry>
        </mxCell>
        <mxCell id="hNWl9owBEaFHa4xk389I-18" value="Entrega Instancia" style="edgeLabel;html=1;align=center;verticalAlign=middle;resizable=0;points=[];" vertex="1" connectable="0" parent="hNWl9owBEaFHa4xk389I-17">
          <mxGeometry x="0.3222" y="-3" relative="1" as="geometry">
            <mxPoint x="22" as="offset" />
          </mxGeometry>
        </mxCell>
        <mxCell id="hNWl9owBEaFHa4xk389I-22" style="edgeStyle=orthogonalEdgeStyle;rounded=0;orthogonalLoop=1;jettySize=auto;html=1;exitX=1;exitY=0;exitDx=0;exitDy=0;" edge="1" parent="1" source="hNWl9owBEaFHa4xk389I-19" target="hNWl9owBEaFHa4xk389I-21">
          <mxGeometry relative="1" as="geometry">
            <Array as="points">
              <mxPoint x="635" y="360" />
              <mxPoint x="635" y="360" />
            </Array>
          </mxGeometry>
        </mxCell>
        <mxCell id="hNWl9owBEaFHa4xk389I-23" value="Solicitar Usuario&lt;div&gt;(related to uuid)&lt;/div&gt;" style="edgeLabel;html=1;align=center;verticalAlign=middle;resizable=0;points=[];" vertex="1" connectable="0" parent="hNWl9owBEaFHa4xk389I-22">
          <mxGeometry x="-0.229" y="-2" relative="1" as="geometry">
            <mxPoint x="18" y="-2" as="offset" />
          </mxGeometry>
        </mxCell>
        <mxCell id="hNWl9owBEaFHa4xk389I-25" value="" style="group" vertex="1" connectable="0" parent="1">
          <mxGeometry x="445" y="180" width="180" height="640" as="geometry" />
        </mxCell>
        <mxCell id="hNWl9owBEaFHa4xk389I-24" value="" style="group" vertex="1" connectable="0" parent="hNWl9owBEaFHa4xk389I-25">
          <mxGeometry width="180" height="640" as="geometry" />
        </mxCell>
        <mxCell id="hNWl9owBEaFHa4xk389I-1" value="Picow API" style="shape=umlLifeline;perimeter=lifelinePerimeter;whiteSpace=wrap;html=1;container=0;dropTarget=0;collapsible=0;recursiveResize=0;outlineConnect=0;portConstraint=eastwest;newEdgeStyle={&quot;edgeStyle&quot;:&quot;elbowEdgeStyle&quot;,&quot;elbow&quot;:&quot;vertical&quot;,&quot;curved&quot;:0,&quot;rounded&quot;:0};" vertex="1" parent="hNWl9owBEaFHa4xk389I-24">
          <mxGeometry width="100" height="550" as="geometry" />
        </mxCell>
        <mxCell id="hNWl9owBEaFHa4xk389I-2" value="" style="html=1;points=[];perimeter=orthogonalPerimeter;outlineConnect=0;targetShapes=umlLifeline;portConstraint=eastwest;newEdgeStyle={&quot;edgeStyle&quot;:&quot;elbowEdgeStyle&quot;,&quot;elbow&quot;:&quot;vertical&quot;,&quot;curved&quot;:0,&quot;rounded&quot;:0};" vertex="1" parent="hNWl9owBEaFHa4xk389I-1">
          <mxGeometry x="45" y="90" width="10" height="450" as="geometry" />
        </mxCell>
        <mxCell id="hNWl9owBEaFHa4xk389I-16" value="" style="rounded=0;whiteSpace=wrap;html=1;" vertex="1" parent="hNWl9owBEaFHa4xk389I-24">
          <mxGeometry x="50" y="100" width="10" height="50" as="geometry" />
        </mxCell>
        <mxCell id="hNWl9owBEaFHa4xk389I-28" value="Adquiere la bicicleta&lt;div&gt;de la instancia Usuario&lt;/div&gt;" style="rounded=0;whiteSpace=wrap;html=1;" vertex="1" parent="hNWl9owBEaFHa4xk389I-24">
          <mxGeometry x="50" y="250" width="120" height="60" as="geometry" />
        </mxCell>
        <mxCell id="hNWl9owBEaFHa4xk389I-36" value="VerificaciÃ³n que existe la bicicleta en el bicicletero" style="rounded=0;whiteSpace=wrap;html=1;" vertex="1" parent="hNWl9owBEaFHa4xk389I-24">
          <mxGeometry x="50" y="330" width="120" height="60" as="geometry" />
        </mxCell>
        <mxCell id="hNWl9owBEaFHa4xk389I-45" value="Se aÃ±ade la bicicleta al bicicletero" style="rounded=0;whiteSpace=wrap;html=1;" vertex="1" parent="hNWl9owBEaFHa4xk389I-24">
          <mxGeometry x="50" y="410" width="120" height="60" as="geometry" />
        </mxCell>
        <mxCell id="hNWl9owBEaFHa4xk389I-19" value="" style="rounded=0;whiteSpace=wrap;html=1;" vertex="1" parent="hNWl9owBEaFHa4xk389I-25">
          <mxGeometry x="50" y="180" width="10" height="50" as="geometry" />
        </mxCell>
        <mxCell id="hNWl9owBEaFHa4xk389I-26" style="edgeStyle=elbowEdgeStyle;rounded=0;orthogonalLoop=1;jettySize=auto;html=1;elbow=vertical;curved=0;entryX=1;entryY=1;entryDx=0;entryDy=0;" edge="1" parent="1" source="hNWl9owBEaFHa4xk389I-21" target="hNWl9owBEaFHa4xk389I-19">
          <mxGeometry relative="1" as="geometry" />
        </mxCell>
        <mxCell id="hNWl9owBEaFHa4xk389I-27" value="Entrega instancia" style="edgeLabel;html=1;align=center;verticalAlign=middle;resizable=0;points=[];" vertex="1" connectable="0" parent="hNWl9owBEaFHa4xk389I-26">
          <mxGeometry x="0.0233" y="-1" relative="1" as="geometry">
            <mxPoint as="offset" />
          </mxGeometry>
        </mxCell>
        <mxCell id="hNWl9owBEaFHa4xk389I-46" style="edgeStyle=elbowEdgeStyle;rounded=0;orthogonalLoop=1;jettySize=auto;html=1;elbow=vertical;curved=0;" edge="1" parent="1" source="hNWl9owBEaFHa4xk389I-2" target="aM9ryv3xv72pqoxQDRHE-5">
          <mxGeometry relative="1" as="geometry">
            <Array as="points">
              <mxPoint x="415" y="720" />
            </Array>
          </mxGeometry>
        </mxCell>
        <mxCell id="hNWl9owBEaFHa4xk389I-47" value="RESPONSE (200)&lt;div&gt;json: slot disponible&lt;/div&gt;" style="edgeLabel;html=1;align=center;verticalAlign=middle;resizable=0;points=[];" vertex="1" connectable="0" parent="hNWl9owBEaFHa4xk389I-46">
          <mxGeometry x="0.1585" relative="1" as="geometry">
            <mxPoint as="offset" />
          </mxGeometry>
        </mxCell>
        <mxCell id="hNWl9owBEaFHa4xk389I-48" style="edgeStyle=elbowEdgeStyle;rounded=0;orthogonalLoop=1;jettySize=auto;html=1;elbow=vertical;curved=0;" edge="1" parent="1" source="aM9ryv3xv72pqoxQDRHE-6" target="aM9ryv3xv72pqoxQDRHE-1">
          <mxGeometry relative="1" as="geometry">
            <Array as="points">
              <mxPoint x="265" y="720" />
            </Array>
          </mxGeometry>
        </mxCell>
        <mxCell id="hNWl9owBEaFHa4xk389I-49" value="Wifi" style="edgeLabel;html=1;align=center;verticalAlign=middle;resizable=0;points=[];" vertex="1" connectable="0" parent="hNWl9owBEaFHa4xk389I-48">
          <mxGeometry x="0.2905" y="1" relative="1" as="geometry">
            <mxPoint x="17" y="-1" as="offset" />
          </mxGeometry>
        </mxCell>
        <mxCell id="hNWl9owBEaFHa4xk389I-50" value="Se abre la cerradura correspondiente al slot disponible" style="rounded=0;whiteSpace=wrap;html=1;" vertex="1" parent="1">
          <mxGeometry x="205" y="740" width="120" height="60" as="geometry" />
        </mxCell>
        <mxCell id="hNWl9owBEaFHa4xk389I-51" value="Fin" style="ellipse;whiteSpace=wrap;html=1;aspect=fixed;" vertex="1" parent="1">
          <mxGeometry x="165" y="840" width="80" height="80" as="geometry" />
        </mxCell>
      </root>
    </mxGraphModel>
  </diagram>
</mxfile>
